# AST/ASF file generated using VICON BodyLanguage
# -----------------------------------------------
:version 1.10
:name VICON
:units
  mass 1.0
  length 0.45
  angle deg
:documentation
   .ast/.asf automatically generated from VICON data using
   VICON BodyBuilder and BodyLanguage model FoxedUp or BRILLIANT.MOD
:root
   order TX TY TZ RX RY RZ
   axis XYZ
   position 0 0 0  
   orientation 0 0 0 
:bonedata
  begin
     id 1 
     name lhipjoint
     direction 0.547975 -0.797114 0.253638 
     length 2.36201 
     axis 0 0 0  XYZ
  end
  begin
     id 2 
     name lfemur
     direction 0.34202 -0.939693 0  
     length 7.69075  
     axis 0 0 20  XYZ
    dof rx ry rz
    limits (-160.0 20.0)
           (-70.0 70.0)
           (-60.0 70.0)
  end
  begin
     id 3 
     name ltibia
     direction 0.34202 -0.939693 0   
     length 7.91399   
     axis 0 0 20   XYZ
    dof rx
    limits (-10.0 170.0)
  end
  begin
     id 4 
     name lfoot
     direction 0.0705293 -0.193778 0.978507   
     length 2.13618   
     axis -90 7.62852e-016 20   XYZ
    dof rx rz
    limits (-45.0 90.0)
           (-70.0 20.0)
  end
  begin
     id 5 
     name ltoes
     direction 1.53592e-011 -4.21925e-011 1   
     length 1.07518   
     axis -90 7.62852e-016 20   XYZ
    dof rx
    limits (-90.0 20.0)
  end
  begin
     id 6 
     name rhipjoint
     direction -0.57 -0.782963 0.249136   
     length 2.4047  
     axis 0 0 0  XYZ 
  end
  begin
     id 7 
     name rfemur
     direction -0.34202 -0.939693 0   
     length 7.51486   
     axis 0 0 -20   XYZ
    dof rx ry rz
    limits (-160.0 20.0)
           (-70.0 70.0)
           (-70.0 60.0)
  end
  begin
     id 8 
     name rtibia
     direction -0.34202 -0.939693 0   
     length 8.08317   
     axis 0 0 -20   XYZ
    dof rx
    limits (-10.0 170.0)
 end
 begin
     id 9 
     name rfoot
     direction -0.104954 -0.281256 0.953876   
     length 2.30343  
     axis -90 -7.62852e-016 -20   XYZ
    dof rx rz
    limits (-45.0 90.0)
           (-20.0 70.0)
  end
  begin
     id 10 
     name rtoes
     direction -1.53556e-011 -4.21922e-011 1   
     length 1.14803   
     axis -90 -7.62852e-016 -20   XYZ
    dof rx
    limits (-90.0 20.0)
  end
  begin
     id 11 
     name lowerback
     direction -0.0152855 0.99353 -0.11254   
     length 2.05311   
     axis 0 0 0   XYZ
    dof rx ry rz
    limits (-20.0 45.0)
           (-30.0 30.0)
           (-30.0 30.0)
  end
  begin
     id 12 
     name upperback
     direction -0.00157509 0.999443 -0.033332   
     length 2.06353   
     axis 0 0 0   XYZ
    dof rx ry rz
    limits (-20.0 45.0)
           (-30.0 30.0)
           (-30.0 30.0)
  end
  begin
     id 13 
     name thorax
     direction 0.00577788 0.999804 0.0189484   
     length 2.08472   
     axis 0 0 0   XYZ
    dof rx ry rz
    limits (-20.0 45.0)
           (-30.0 30.0)
           (-30.0 30.0)
  end
  begin
     id 14 
     name lowerneck
     direction -1.09301e-005 0.994719 0.10264   
     length 1.76249   
     axis 0 0 0   XYZ
    dof rx ry rz
    limits (-20.0 45.0)
           (-30.0 30.0)
           (-30.0 30.0)
  end
  begin
     id 15 
     name upperneck
     direction 0.0495018 0.988526 -0.142706   
     length 1.77897   
     axis 0 0 0   XYZ
    dof rx ry rz
    limits (-20.0 45.0)
           (-30.0 30.0)
           (-30.0 30.0)
  end
  begin
     id 16
     name head
     direction 0.0142736 0.998114 -0.0597101  
     length 1.78934  
     axis 0 0 0   XYZ
    dof rx ry rz
    limits (-20.0 45.0)
           (-30.0 30.0)
           (-30.0 30.0)
  end
  begin
     id 17 
     name lclavicle
     direction 0.918111 0.396107 -0.0130883  
     length 3.37276  
     axis 0 0 0   XYZ
    dof ry rz
    limits (-20.0 10.0)
           (0.0 20.0)
  end
  begin
     id 18 
     name lhumerus
     direction 1 -4.48975e-011 -3.26108e-027   
     length 5.34298   
     axis 180 -30 -90   XYZ
    dof rx ry rz
    limits (-60.0 90.0)
           (-90.0 90.0)
           (-90.0 90.0)
  end
  begin
     id 19
     name lradius
     direction 1 -4.48964e-011 -8.84413e-028   
     length 3.67262   
     axis 180 -30 -90   XYZ
    dof rx
    limits (-10.0 170.0)
  end
  begin
     id 20
     name lwrist
     direction 1 -4.48991e-011 -1.24264e-027   
     length 1.83631   
     axis -2.17013e-015 90 90   XYZ
    dof ry
    limits (-180.0 0.0)
 end
  begin
     id 21 
     name lhand
     direction 1 -4.48855e-011 -2.48528e-027   
     length 0.599298   
     axis 1.58582e-015 90 90   XYZ
    dof rx rz
    limits (-90.0 90.0)
           (-45.0 45.0)
  end
  begin
     id 22 
     name lfingers
     direction 1 -4.48811e-011 -4.97056e-027   
     length 0.48317   
     axis 3.17164e-015 90 90   XYZ
    dof rx
    limits (0.0 90.0)
  end
  begin
     id 23
     name lthumb
     direction 0.707107 -6.34882e-011 0.707107   
     length 0.693738   
     axis -90 45 2.85299e-015   XYZ
    dof rx rz
    limits (-45.0 45.0)
           (-45.0 45.0)
  end
  begin
     id 24 
     name rclavicle
     direction -0.920511 0.384752 -0.0680135   
     length 3.43787  
     axis 0 0 0   XYZ 
    dof ry rz
    limits (-10.0 20.0)
           (-20.0 0.0)
  end
  begin
     id 25 
     name rhumerus
     direction -0.999976 -0.00330524 0.00603274  
     length 5.5498   
     axis 180 30 90   XYZ
    dof rx ry rz
    limits (-90.0 60.0)
           (-90.0 90.0)
           (-90.0 90.0)
  end
  begin
     id 26 
     name rradius
     direction -1 -4.48967e-011 8.62438e-027   
     length 3.69401   
     axis 180 30 90   XYZ
    dof rx
    limits (-10.0 170.0)
  end
  begin
     id 27 
     name rwrist
     direction -1 -4.4897e-011 9.54866e-027   
     length 1.84701   
     axis -7.69462e-015 -90 -90   XYZ
    dof ry
    limits (-180.0 0.0)
  end
  begin
     id 28
     name rhand
     direction -1 -4.48982e-011 1.90973e-026   
     length 0.638113   
     axis -1.21857e-014 -90 -90   XYZ
    dof rx rz
    limits (-90.0 90.0)
           (-45.0 45.0)
  end
  begin
     id 29
     name rfingers
     direction -1 -4.48936e-011 3.81946e-026   
     length 0.514463   
     axis -2.43714e-014 -90 -90   XYZ
    dof rx
    limits (0.0 90.0)
  end
  begin
     id 30
     name rthumb
     direction -0.707107 -6.34942e-011 0.707107   
     length 0.738669   
     axis -90 -45 -2.85299e-015   XYZ
    dof rx rz
    limits (-45.0 45.0)
           (-45.0 45.0)
  end
:hierarchy
  begin
    root lhipjoint rhipjoint lowerback
    lhipjoint lfemur
    lfemur ltibia
    ltibia lfoot
    lfoot ltoes
    rhipjoint rfemur
    rfemur rtibia
    rtibia rfoot
    rfoot rtoes
    lowerback upperback
    upperback thorax
    thorax lowerneck lclavicle rclavicle
    lowerneck upperneck
    upperneck head
    lclavicle lhumerus
    lhumerus lradius
    lradius lwrist
    lwrist lhand lthumb
    lhand lfingers
    rclavicle rhumerus
    rhumerus rradius
    rradius rwrist
    rwrist rhand rthumb
    rhand rfingers
  end

#!OML:ASF F:\twosubjects\two\Thursday\Session 1\Rory.ASF
:FULLY-SPECIFIED
:DEGREES
83
root 17.8613 18.4082 -4.84966 3.64212 -8.87001 1.19204
lowerback 2.52054 0.0848327 -2.32845
upperback 2.21638 0.0795601 -1.94415
thorax 0.859129 0.0233619 -0.688791
lowerneck -2.4463 -10.2898 -9.43977
upperneck 15.1859 -15.2056 11.9531
head 6.65464 -7.21162 4.18407
rclavicle -5.86415e-015 3.02153e-014
rhumerus -34.139 -20.5367 -72.3225
rradius 24.0533
rwrist 27.4041
rhand -22.6415 20.1616
rfingers 7.12502
rthumb 3.7893 -9.78449
lclavicle -5.86415e-015 3.02153e-014
lhumerus -47.0487 -8.16623 91.8637
lradius 99.4997
lwrist -30.426
lhand -25.5518 26.6967
lfingers 7.12502
lthumb 0.978651 56.6742
rfemur 10.7594 5.4411 19.5343
rtibia 12.2493
rfoot -12.3701 -1.82144
rtoes -15.742
lfemur -23.7308 -2.52783 -15.4617
ltibia 14.0765
lfoot 2.53961 8.38617
ltoes 0.962819
84
root 17.8783 18.4274 -4.70689 4.09273 -8.85921 0.665012
lowerback 2.34068 0.195082 -1.93182
upperback 2.09689 0.235904 -1.87931
thorax 0.837153 0.106592 -0.846425
lowerneck -2.43753 -10.499 -9.94427
upperneck 14.6222 -15.5173 12.6616
head 6.60876 -7.35968 4.4553
rclavicle -8.15017e-015 -8.74653e-015
rhumerus -35.3815 -24.6358 -69.4165
rradius 21.897
rwrist 30.7583
rhand -24.1776 19.0083
rfingers 7.12502
rthumb 2.30581 -10.959
lclavicle -8.15017e-015 -8.74653e-015
lhumerus -46.8738 -7.97383 91.503
lradius 99.467
lwrist -31.1144
lhand -24.4676 26.7949
lfingers 7.12502
lthumb 2.02571 56.765
rfemur 10.5315 6.08748 20.1002
rtibia 12.6736
rfoot -11.3625 -2.07274
rtoes -17.377
lfemur -24.528 -2.50156 -14.8829
ltibia 15.4522
lfoot 1.89942 8.22021
ltoes 10.5007
85
root 17.8947 18.4425 -4.55041 4.29851 -8.82145 -0.0151881
lowerback 2.26192 0.237251 -1.38126
upperback 2.03691 0.301182 -1.80875
thorax 0.821684 0.145533 -1.08316
lowerneck -2.27387 -10.598 -10.4017
upperneck 14.0422 -15.7033 13.4631
head 6.52292 -7.44854 4.77197
rclavicle -1.65985e-014 7.95139e-015
rhumerus -37.0028 -27.8068 -66.7302
rradius 20.1052
rwrist 32.4517
rhand -25.097 22.009
rfingers 7.12502
rthumb 1.41785 -7.96599
lclavicle -1.65985e-014 7.95139e-015
lhumerus -47.0013 -7.56968 91.0715
lradius 99.5469
lwrist -31.3671
lhand -23.9028 25.7988
lfingers 7.12502
lthumb 2.57125 55.763
rfemur 10.3021 6.70385 20.849
rtibia 13.684
rfoot -10.7965 -2.19481
rtoes -19.3815
lfemur -24.8601 -2.40667 -14.2746
ltibia 16.7896
lfoot 0.581976 8.25513
ltoes 16.3985
86
root 17.9187 18.4546 -4.3695 4.05869 -8.76929 0.0375907
lowerback 2.19021 0.256251 -1.42051
upperback 2.14568 0.331259 -1.99916
thorax 0.974827 0.160871 -1.2565
lowerneck -2.25161 -10.6942 -10.5807
upperneck 13.6219 -15.8883 14.1229
head 6.48067 -7.5228 4.9922
rclavicle 1.51076e-014 1.59028e-015
rhumerus -38.9672 -30.2978 -64.1441
rradius 18.853
rwrist 33.6942
rhand -24.9576 24.9482
rfingers 7.12502
rthumb 1.55256 -5.02592
lclavicle 1.51076e-014 1.59028e-015
lhumerus -47.1075 -7.4233 90.5865
lradius 99.5809
lwrist -31.4322
lhand -24.4575 24.6827
lfingers 7.12502
lthumb 2.03547 54.6527
rfemur 10.3329 6.80469 20.6317
rtibia 15.016
rfoot -10.5123 -1.66675
rtoes -20.1084
lfemur -24.5958 -2.05881 -14.7129
ltibia 18.0354
lfoot 0.526682 7.17787
ltoes 11.8541
87
root 17.9456 18.4579 -4.20429 4.12861 -8.74765 0.021334
lowerback 1.95838 0.300784 -1.40748
upperback 2.19745 0.399551 -2.14238
thorax 1.15987 0.195825 -1.41039
lowerneck -2.40146 -10.8854 -10.6349
upperneck 13.1942 -16.1572 14.5489
head 6.44987 -7.63711 5.09811
rclavicle -2.5842e-014 -1.51076e-014
rhumerus -41.2103 -33.4125 -60.7775
rradius 17.5712
rwrist 36.1794
rhand -24.8523 26.056
rfingers 7.12502
rthumb 1.65426 -3.91737
lclavicle -2.5842e-014 -1.51076e-014
lhumerus -46.855 -7.39189 90.1614
lradius 99.4155
lwrist -31.4708
lhand -24.8938 24.1901
lfingers 7.12502
lthumb 1.61418 54.1638
rfemur 9.90917 7.18372 20.5034
rtibia 16.413
rfoot -9.86872 -1.1289
rtoes -19.6991
lfemur -24.6982 -1.86239 -14.9665
ltibia 19.1945
lfoot 0.0970249 6.968
ltoes 13.5098
88
root 17.9668 18.4606 -4.03341 4.17466 -8.74044 -0.0857409
lowerback 1.90168 0.370606 -1.40418
upperback 2.07577 0.491658 -2.21513
thorax 1.06883 0.242704 -1.48765
lowerneck -2.31497 -11.038 -10.5326
upperneck 12.7808 -16.3412 14.6206
head 6.32795 -7.73379 5.09097
rclavicle 1.67973e-014 2.94201e-014
rhumerus -44.0616 -36.108 -56.8812
rradius 16.4053
rwrist 38.706
rhand -24.7183 27.1465
rfingers 7.12502
rthumb 1.78366 -2.82578
lclavicle 1.67973e-014 2.94201e-014
lhumerus -46.8945 -7.36384 89.8376
lradius 99.2961
lwrist -31.3044
lhand -24.1066 24.045
lfingers 7.12502
lthumb 2.37444 54.0116
rfemur 9.51889 7.66596 20.5285
rtibia 17.9046
rfoot -9.1523 -0.736548
rtoes -18.284
lfemur -24.6478 -1.66249 -15.169
ltibia 20.1753
lfoot -0.188654 6.62414
ltoes 11.8211
89
root 17.988 18.4648 -3.85682 3.93227 -8.72976 0.0476097
lowerback 2.12139 0.438652 -1.67208
upperback 1.96041 0.56945 -2.30296
thorax 0.827162 0.279507 -1.43054
lowerneck -2.03042 -11.1186 -10.4837
upperneck 12.3339 -16.4266 14.6702
head 6.15062 -7.79715 5.10952
rclavicle 5.46658e-015 -2.3059e-014
rhumerus -46.5324 -36.7832 -54.0953
rradius 15.7238
rwrist 39.3258
rhand -24.6976 27.8854
rfingers 7.12502
rthumb 1.80366 -2.08668
lclavicle 5.46658e-015 -2.3059e-014
lhumerus -47.2518 -7.30561 89.5937
lradius 99.4777
lwrist -31.166
lhand -23.4136 23.9822
lfingers 7.12502
lthumb 3.04369 53.9403
rfemur 9.32265 7.72103 20.2313
rtibia 19.6436
rfoot -8.39563 -0.216885
rtoes -18.8462
lfemur -24.183 -1.48452 -15.6492
ltibia 20.9349
lfoot -0.413958 6.00213
ltoes 7.24193
90
root 18.0153 18.4876 -3.6913 3.78743 -8.76534 0.172812
lowerback 2.25127 0.573043 -1.87665
upperback 1.95648 0.741132 -2.37828
thorax 0.751257 0.363715 -1.39706
lowerneck -2.25656 -11.3788 -10.6549
upperneck 12.2694 -16.7927 14.909
head 6.25597 -7.96031 5.15345
rclavicle 2.37548e-014 -3.18055e-014
rhumerus -48.8291 -37.5883 -51.2971
rradius 15.1329
rwrist 40.1808
rhand -24.8698 27.6232
rfingers 7.12502
rthumb 1.63727 -2.35025
lclavicle 2.37548e-014 -3.18055e-014
lhumerus -47.4146 -7.39339 89.4449
lradius 99.7807
lwrist -31.0532
lhand -23.4634 24.0029
lfingers 7.12502
lthumb 2.99557 53.9616
rfemur 8.89834 7.64025 19.854
rtibia 21.4171
rfoot -7.06646 0.634836
rtoes -18.8166
lfemur -23.6853 -1.67683 -15.8933
ltibia 21.4181
lfoot -1.23521 5.85473
ltoes 11.4323
91
root 18.0475 18.5139 -3.53211 3.83205 -8.7929 0.669831
lowerback 2.11583 0.643518 -2.39979
upperback 1.90302 0.831454 -2.58937
thorax 0.769634 0.404323 -1.3211
lowerneck -2.87555 -11.6583 -10.9002
upperneck 12.7614 -17.2349 15.1673
head 6.62573 -8.12572 5.17453
rclavicle -3.17062e-014 -2.3059e-014
rhumerus -51.7884 -39.442 -47.289
rradius 14.3807
rwrist 43.0254
rhand -24.9887 27.194
rfingers 7.12502
rthumb 1.52251 -2.78036
lclavicle -3.17062e-014 -2.3059e-014
lhumerus -47.4703 -7.48689 89.1873
lradius 99.9149
lwrist -30.7295
lhand -23.5751 23.842
lfingers 7.12502
lthumb 2.88773 53.8022
rfemur 8.09502 7.31652 18.9071
rtibia 23.2217
rfoot -5.79004 1.62308
rtoes -18.9775
lfemur -23.4215 -1.90912 -16.5591
ltibia 21.7826
lfoot -2.16029 5.68863
ltoes 17.0862
92
root 18.0789 18.5338 -3.3717 3.7593 -8.74676 1.40312
lowerback 2.10509 0.559584 -3.17865
upperback 1.76725 0.704039 -2.83183
thorax 0.630445 0.335341 -1.13333
lowerneck -2.87013 -11.6859 -11.1566
upperneck 12.7582 -17.2947 15.3786
head 6.67517 -8.15579 5.27261
rclavicle 9.24349e-015 -2.38542e-015
rhumerus -54.4011 -40.336 -44.0977
rradius 14.1623
rwrist 45.4704
rhand -23.8329 27.8196
rfingers 7.12502
rthumb 2.63877 -2.14384
lclavicle 9.24349e-015 -2.38542e-015
lhumerus -47.6705 -7.28254 88.8047
lradius 99.9437
lwrist -30.3132
lhand -23.5731 23.1947
lfingers 7.12502
lthumb 2.88966 53.1548
rfemur 7.22218 6.82918 17.6564
rtibia 25.1823
rfoot -4.6876 2.49546
rtoes -19.7341
lfemur -23.1 -1.93885 -17.6416
ltibia 22.1481
lfoot -2.57533 5.40574
ltoes 18.1783
93
root 18.0995 18.5412 -3.20478 3.4331 -8.71785 1.51907
lowerback 2.36702 0.506011 -3.41381
upperback 1.72336 0.612442 -2.85589
thorax 0.43714 0.289531 -1.0278
lowerneck -2.49132 -11.6901 -11.4493
upperneck 12.2488 -17.2725 15.574
head 6.48998 -8.18261 5.40804
rclavicle -2.48481e-015 -2.38542e-015
rhumerus -55.7716 -39.6372 -42.9731
rradius 14.4569
rwrist 45.9749
rhand -21.2172 26.9476
rfingers 7.12502
rthumb 5.16468 -2.9695
lclavicle -2.48481e-015 -2.38542e-015
lhumerus -47.9873 -6.95284 88.5065
lradius 100.083
lwrist -30.1138
lhand -23.7726 22.5483
lfingers 7.12502
lthumb 2.69697 52.511
rfemur 6.63695 6.82064 17.307
rtibia 27.2319
rfoot -3.14523 2.94345
rtoes -18.2932
lfemur -22.4117 -1.82437 -18.0197
ltibia 22.6093
lfoot -3.05003 5.15674
ltoes 20.1394
94
root 18.1126 18.541 -3.05089 3.37962 -8.725 1.07112
lowerback 2.43262 0.511047 -3.12004
upperback 1.80066 0.624235 -2.76684
thorax 0.481358 0.296799 -1.10095
lowerneck -2.62276 -11.8311 -11.6021
upperneck 11.8188 -17.4398 15.8822
head 6.44602 -8.2604 5.5012
rclavicle 1.33186e-014 -2.70347e-014
rhumerus -57.7271 -40.1633 -40.3037
rradius 13.9532
rwrist 48.8352
rhand -19.7987 25.8691
rfingers 7.12502
rthumb 6.53416 -4.01006
lclavicle 1.33186e-014 -2.70347e-014
lhumerus -47.951 -6.82633 88.178
lradius 100.256
lwrist -29.947
lhand -23.7672 22.7357
lfingers 7.12502
lthumb 2.70221 52.6983
rfemur 5.764 7.18745 17.7319
rtibia 29.3079
rfoot -1.17543 2.97535
rtoes -15.9289
lfemur -22.054 -1.38228 -17.7487
ltibia 23.1549
lfoot -3.62837 4.65987
ltoes 20.0609
95
root 18.1311 18.5623 -2.90325 3.32715 -8.881 0.843932
lowerback 2.51932 0.536764 -3.00795
upperback 1.92757 0.661078 -2.78138
thorax 0.564333 0.314959 -1.17962
lowerneck -3.01249 -11.917 -11.4318
upperneck 11.5168 -17.5332 16.0948
head 6.43874 -8.27737 5.50822
rclavicle -6.55989e-015 1.59028e-015
rhumerus -60.0472 -41.3699 -36.7997
rradius 13.1795
rwrist 52.7898
rhand -19.4834 26.8873
rfingers 7.12502
rthumb 6.8385 -2.98221
lclavicle -6.55989e-015 1.59028e-015
lhumerus -47.5766 -6.90045 87.7133
lradius 100.244
lwrist -29.3159
lhand -23.5706 23.2121
lfingers 7.12502
lthumb 2.89207 53.1722
rfemur 4.75416 7.43756 17.7834
rtibia 31.3347
rfoot 0.942415 3.27058
rtoes -13.4978
lfemur -21.6419 -1.34023 -17.5821
ltibia 23.5985
lfoot -4.50419 4.59209
ltoes 20.9165
96
root 18.1552 18.5842 -2.75402 3.14905 -8.90434 1.19186
lowerback 2.75726 0.488136 -3.43783
upperback 1.88071 0.572479 -2.935
thorax 0.38129 0.269165 -1.09777
lowerneck -3.30801 -11.9905 -11.2752
upperneck 11.6464 -17.6365 16.037
head 6.52641 -8.30493 5.43306
rclavicle -3.63776e-014 1.35174e-014
rhumerus -60.7484 -40.8256 -36.2644
rradius 13.1937
rwrist 53.116
rhand -18.8661 28.2266
rfingers 7.12502
rthumb 7.43443 -1.62276
lclavicle -3.63776e-014 1.35174e-014
lhumerus -47.5214 -6.94014 87.2545
lradius 100.143
lwrist -28.6867
lhand -23.7277 23.0896
lfingers 7.12502
lthumb 2.7403 53.0517
rfemur 3.66864 7.32017 17.0784
rtibia 33.5708
rfoot 2.964 3.87817
rtoes -10.2981
lfemur -21.1087 -1.69405 -18.0514
ltibia 23.9851
lfoot -5.4405 4.67717
ltoes 22.5719
